<svg width="609" height="209" viewBox="0 0 609 209" fill="none" xmlns="http://www.w3.org/2000/svg">
<path d="M589.996 91.7438L586.257 93.7422L585.71 92.7192C582.844 87.3569 588.759 83.7425 586.855 80.1794C586.025 78.6271 584.42 78.1696 582.092 79.414C578.952 81.0919 577.823 84.3258 580.652 88.3469L576.019 87.7391C573.166 83.5038 575.065 78.3163 580.357 75.4884C584.872 73.0751 588.767 73.4883 590.916 77.5101C593.8 82.9076 587.281 86.6637 589.619 91.0382L589.996 91.7438ZM594.27 98.8931L589.755 101.306L587.078 96.2968L591.593 93.8836L594.27 98.8931Z" fill="#7F5CCC"/>
<path d="M562.279 116.364L558.363 118.54L548.902 101.512L552.819 99.336L555.402 103.986C554.536 100.944 555.002 97.6653 558.394 95.7809C561.715 93.9353 564.851 94.8016 566.813 98.3332L573.398 110.187L569.447 112.382L563.522 101.717C562.357 99.6193 560.861 98.5742 558.238 100.031C555.371 101.624 555.422 104.021 556.976 106.819L562.279 116.364Z" fill="#7F5CCC"/>
<path d="M538.648 129.947C533.746 132.655 528.412 130.942 525.49 125.656C522.549 120.334 523.937 114.906 528.838 112.197C533.809 109.45 539.144 111.163 542.085 116.484C545.006 121.771 543.619 127.199 538.648 129.947ZM536.883 126.671C539.439 125.259 540.261 122.611 538.094 118.69C535.907 114.734 533.228 114.021 530.672 115.433C528.152 116.827 527.33 119.474 529.516 123.43C531.683 127.351 534.363 128.065 536.883 126.671Z" fill="#7F5CCC"/>
<path d="M505.505 122.217L501.547 124.318L499.41 120.29L503.367 118.189L505.505 122.217ZM515.931 141.862L511.974 143.962L502.841 126.756L506.799 124.655L515.931 141.862Z" fill="#7F5CCC"/>
<path d="M499.023 151.15C495.731 152.794 492.798 151.665 491.261 148.587L486.49 139.032L483.77 140.39L482.216 137.277L484.936 135.919L483.881 133.807L486.621 129.265L488.944 133.917L494.276 131.255L495.831 134.368L490.498 137.031L494.787 145.62C495.734 147.516 496.861 147.535 498.042 146.945C499.402 146.266 499.85 144.657 499.85 143.404L502.89 146.358C502.692 147.842 501.564 149.881 499.023 151.15Z" fill="#7F5CCC"/>
<path d="M470.778 164.508C467.86 165.82 465.37 164.966 464.222 162.412C463.091 159.895 464.153 157.575 466.527 155.149L471.342 149.958C470.392 148.236 469.048 147.393 466.604 148.492C464.233 149.558 462.995 151.781 462.81 154.1L459.054 152.281C459.587 149.76 461.441 146.471 465.381 144.699C469.796 142.715 473.408 144.117 475.377 148.495L478.378 155.171C478.739 155.974 479.146 156.098 479.802 155.803L480.933 155.294L482.508 158.797L479.99 159.928C478.093 160.781 476.204 160.578 475.056 158.024L474.465 156.711C474.968 159.292 474.5 162.835 470.778 164.508ZM467.884 160.021C468.343 161.042 469.315 161.351 470.811 160.678C473.51 159.465 474.613 157.039 473.53 154.631L472.678 152.734L469.036 156.828C467.815 158.21 467.474 159.109 467.884 160.021Z" fill="#7F5CCC"/>
<path d="M449.047 173.125L444.866 174.734L437.871 156.553L442.052 154.944L444.035 160.096C443.586 156.926 444.41 153.608 447.658 152.359C449.935 151.483 452.19 152.33 453.224 155.018C453.899 156.772 453.916 158.266 453.796 158.955L449.503 160.607C449.87 159.779 449.97 158.369 449.568 157.324C449.18 156.316 448.379 155.682 447.147 156.156C445.057 156.96 444.035 160.096 445.198 163.12L449.047 173.125Z" fill="#7F5CCC"/>
<path d="M422.042 159.129L417.773 160.49L416.388 156.145L420.657 154.785L422.042 159.129ZM428.797 180.318L424.529 181.679L418.612 163.119L422.88 161.759L428.797 180.318Z" fill="#7F5CCC"/>
<path d="M401.361 195.454L397 196.48L390.834 170.276L395.195 169.25L396.386 174.312C396.312 171.206 397.391 168.281 401.168 167.392C405.762 166.311 409.61 169.391 411.049 175.504C412.487 181.618 410.417 186.091 405.745 187.19C401.968 188.079 399.776 185.924 398.466 183.15L401.361 195.454ZM397.696 179.879C398.429 182.994 400.199 184.756 403.275 184.032C406.001 183.39 407.579 180.841 406.571 176.558C405.563 172.275 403.014 170.697 400.288 171.339C397.212 172.062 396.413 174.428 397.146 177.543L397.696 179.879Z" fill="#7F5CCC"/>
<path d="M378.08 192.699C373.96 193.272 369.965 192.132 368.074 189.285L370.303 186.148C371.643 187.941 374.296 189.591 377.742 189.111C379.644 188.846 380.779 188.002 380.586 186.615C380.387 185.189 378.855 184.917 376.644 184.7L373.98 184.425C370.831 184.136 367.83 183.181 367.339 179.655C366.838 176.049 369.427 173.468 373.864 172.85C377.984 172.277 381.152 173.855 382.644 175.869L380.415 179.006C378.77 177.054 376.534 176.073 374.038 176.42C372.334 176.658 371.284 177.531 371.466 178.838C371.659 180.225 372.761 180.596 375.47 180.906L377.89 181.175C382.363 181.683 384.19 183.206 384.576 185.979C385.105 189.782 382.161 192.131 378.08 192.699Z" fill="#7F5CCC"/>
<path d="M344.79 195.203L340.313 195.386L339.516 175.923L343.992 175.739L344.21 181.055C344.803 177.948 346.693 175.228 350.57 175.069C354.367 174.914 356.778 177.097 356.944 181.133L357.499 194.682L352.983 194.867L352.483 182.677C352.385 180.279 351.518 178.673 348.521 178.796C345.244 178.931 344.211 181.095 344.342 184.292L344.79 195.203Z" fill="#7F5CCC"/>
<path d="M324.338 172.934L319.863 172.721L320.079 168.166L324.554 168.379L324.338 172.934ZM323.282 195.149L318.807 194.936L319.732 175.478L324.207 175.691L323.282 195.149Z" fill="#7F5CCC"/>
<path d="M280.503 190.227C274.835 188.998 271.977 184.245 273.264 178.303C274.561 172.322 279.13 169.178 284.486 170.339C290.193 171.576 292.538 176.054 291.394 181.332C291.242 182.035 290.986 182.839 290.823 183.213L277.219 180.265C276.716 183.717 278.311 185.986 281.322 186.639C284.644 187.359 286.503 185.961 287.554 184.51L289.641 187.91C287.72 189.785 284.725 191.142 280.503 190.227ZM283.723 173.857C281.026 173.273 278.889 174.447 277.868 177.459L287.641 179.577C287.98 176.499 286.616 174.484 283.723 173.857Z" fill="#7F5CCC"/>
<path d="M255.701 183.408L251.437 182.033L259.66 156.526L263.924 157.9L255.701 183.408Z" fill="#7F5CCC"/>
<path d="M238.418 177.733C235.02 176.32 233.954 173.364 235.275 170.187L239.377 160.326L236.57 159.159L237.906 155.946L240.713 157.113L241.62 154.934L246.847 154.033L244.85 158.834L250.352 161.123L249.016 164.336L243.513 162.047L239.826 170.911C239.012 172.868 239.736 173.732 240.954 174.239C242.358 174.823 243.868 174.108 244.815 173.289L244.572 177.52C243.32 178.343 241.04 178.824 238.418 177.733Z" fill="#7F5CCC"/>
<path d="M218.684 168.925C215.407 167.252 214.573 164.222 216.136 161.158L220.991 151.645L218.283 150.263L219.865 147.164L222.573 148.545L223.645 146.443L228.927 145.95L226.563 150.582L231.872 153.291L230.29 156.391L224.981 153.682L220.618 162.233C219.654 164.121 220.308 165.039 221.484 165.639C222.838 166.329 224.399 165.734 225.407 164.991L224.836 169.19C223.524 169.913 221.214 170.216 218.684 168.925Z" fill="#7F5CCC"/>
<path d="M209.134 137.898L205.291 135.594L207.636 131.683L211.478 133.986L209.134 137.898ZM197.699 156.973L193.857 154.67L203.872 137.962L207.715 140.265L197.699 156.973Z" fill="#7F5CCC"/>
<path d="M180.065 145.82L176.352 143.312L191.353 121.104L195.065 123.611L180.065 145.82Z" fill="#7F5CCC"/>
<path d="M139.741 116.762C137.209 114.804 136.792 112.206 138.505 109.991C140.193 107.808 142.74 107.654 145.998 108.606L152.844 110.412C153.917 108.763 154.028 107.181 151.908 105.541C149.852 103.951 147.308 103.905 145.174 104.833L145.012 100.662C147.487 99.947 151.262 100.035 154.679 102.678C158.507 105.639 158.971 109.486 156.034 113.283L151.556 119.073C151.017 119.77 151.099 120.187 151.669 120.627L152.649 121.386L150.3 124.423L148.117 122.735C146.472 121.462 145.762 119.7 147.475 117.485L148.356 116.346C146.315 118.004 142.968 119.258 139.741 116.762ZM142.338 112.096C141.653 112.982 141.838 113.985 143.135 114.988C145.477 116.799 148.135 116.63 149.751 114.542L151.023 112.897L145.698 111.61C143.904 111.183 142.95 111.305 142.338 112.096Z" fill="#7F5CCC"/>
<path d="M100.649 86.731C96.8003 83.8629 96.6811 78.9352 100.433 73.8996C104.186 68.8639 108.942 67.5692 112.727 70.3895C115.838 72.7078 115.664 75.8204 114.36 78.6404L121.865 68.5691L125.457 71.246L109.444 92.7357L105.852 90.0589L108.935 85.9213C106.629 87.9445 103.76 89.0494 100.649 86.731ZM104.122 76.6482C101.493 80.1763 101.926 83.143 104.203 84.84C106.705 86.7042 109.006 85.8251 110.919 83.2591L112.376 81.3026C114.289 78.7367 114.497 76.248 111.963 74.3599C109.718 72.6868 106.727 73.1521 104.122 76.6482Z" fill="#7F5CCC"/>
<path d="M77.6438 70.4601C72.795 67.2776 71.8349 61.815 75.1711 56.732C78.5292 51.6157 83.9229 50.3233 88.5042 53.3302C93.3865 56.5347 93.9662 61.5563 91.0031 66.0707C90.6081 66.6727 90.0803 67.331 89.7939 67.6215L78.1566 59.9834C76.4477 63.0244 77.1216 65.7155 79.6965 67.4055C82.539 69.2712 84.7754 68.6338 86.2773 67.6579L87.0044 71.58C84.538 72.6406 81.2554 72.8306 77.6438 70.4601ZM86.5288 56.3399C84.2215 54.8254 81.8053 55.1534 79.7704 57.5977L88.1305 63.0848C89.553 60.3343 89.0034 57.9641 86.5288 56.3399Z" fill="#7F5CCC"/>
<path d="M52.3736 55.2118C47.2517 52.4904 45.7915 47.1397 48.6443 41.7705C51.5158 36.366 56.7671 34.5813 61.6065 37.1525C66.7637 39.8927 67.8044 44.8393 65.2707 49.608C64.9329 50.2438 64.4681 50.9481 64.2098 51.2638L51.9172 44.7325C50.4963 47.9182 51.4157 50.5356 54.1356 51.9808C57.1381 53.576 59.3062 52.735 60.7115 51.6246L61.7976 55.4629C59.4396 56.7466 56.1886 57.2387 52.3736 55.2118ZM59.9173 40.3317C57.48 39.0367 55.1044 39.5863 53.3038 42.2079L62.1347 46.9C63.2973 44.0299 62.5313 41.7205 59.9173 40.3317Z" fill="#7F5CCC"/>
<path d="M11.0913 37.2664L6.83095 35.7565L15.7834 10.496L19.7421 11.899L24.7483 30.2239L25.8337 35.0645L27.2667 30.1828L32.1839 16.3084L36.4442 17.8183L27.4918 43.0788L23.5708 41.6891L18.3808 23.0444L17.3504 18.6477L16.0218 23.3542L11.0913 37.2664Z" fill="#7F5CCC"/>
</svg>
