<svg xmlns="http://www.w3.org/2000/svg" width="532" height="109" fill="none" viewBox="0 0 532 109"><path fill="#7f5ccc" d="M497.53 65.094c-2.793-3.083-4.1-7.027-2.811-10.192l3.847.077c-.727 2.116-.598 5.238 1.739 7.816 1.289 1.423 2.626 1.886 3.663.946 1.067-.967.429-2.386-.636-4.336l-1.271-2.357c-1.535-2.766-2.434-5.783.205-8.174 2.697-2.444 6.288-1.757 9.296 1.563 2.793 3.083 3.272 6.59 2.447 8.956l-3.848-.076c.688-2.458.24-4.86-1.452-6.727-1.155-1.274-2.467-1.65-3.446-.764-1.037.94-.724 2.06.545 4.473l1.14 2.151c2.097 3.983 1.867 6.35-.208 8.23-2.846 2.58-6.444 1.467-9.21-1.586M471.156 45.11l-4.016-1.985 8.629-17.464 4.017 1.984-2.357 4.77c2.01-2.443 4.972-3.924 8.451-2.205 3.407 1.683 4.477 4.755 2.687 8.377l-6.007 12.157-4.052-2.002 5.404-10.938c1.063-2.151 1.073-3.976-1.617-5.305-2.941-1.453-4.884-.048-6.301 2.82zm-25.1-6.637c-5.55-.746-8.813-5.3-8.01-11.287.81-6.026 5.158-9.558 10.708-8.813 5.63.756 8.893 5.31 8.084 11.336-.804 5.987-5.153 9.52-10.782 8.764m.535-3.682c2.894.389 5.131-1.248 5.727-5.688.602-4.48-1.125-6.65-4.019-7.038-2.854-.383-5.092 1.254-5.693 5.733-.597 4.44 1.13 6.61 3.985 6.993m-28.622-19.092-4.424.707-.719-4.503 4.423-.707zm3.512 21.96-4.424.708-3.076-19.236 4.424-.707zM404.007 42.5c-3.406 1.393-6.247.049-7.55-3.135l-4.044-9.885-2.813 1.151-1.318-3.22 2.814-1.152-.894-2.184 3.071-4.325 1.969 4.813 5.516-2.257 1.318 3.221-5.516 2.257 3.635 8.885c.803 1.962 1.925 2.065 3.147 1.565 1.407-.576 1.974-2.147 2.068-3.396l2.81 3.172c-.308 1.466-1.585 3.415-4.213 4.49m-26.663 13.302c-2.769 1.604-5.333 1.008-6.736-1.415-1.383-2.388-.563-4.804 1.55-7.46l4.259-5.656c-1.12-1.616-2.543-2.318-4.862-.975-2.25 1.303-3.254 3.64-3.201 5.967l-3.923-1.426c.273-2.562 1.782-6.023 5.52-8.188 4.188-2.426 7.925-1.4 10.331 2.754l3.668 6.334c.441.762.858.844 1.481.483l1.073-.621 1.924 3.323-2.388 1.383c-1.8 1.042-3.7 1.033-5.103-1.39l-.722-1.246c.764 2.516.66 6.089-2.871 8.133m-3.338-4.168c.561.97 1.56 1.177 2.979.355 2.561-1.483 3.41-4.008 2.087-6.293l-1.042-1.8-3.204 4.444c-1.073 1.5-1.321 2.429-.82 3.294m-21.672 18.284-3.891 2.22-9.654-16.919L342.68 53l2.636 4.62c-.901-3.032-.472-6.316 2.898-8.239 3.3-1.883 6.445-1.053 8.448 2.456l6.72 11.778-3.926 2.24-6.046-10.596c-1.19-2.085-2.697-3.113-5.303-1.626-2.849 1.626-2.771 4.022-1.185 6.802zm-26.662-11.273-4.094 1.82-1.851-4.168 4.094-1.819zm9.03 20.325-4.094 1.819-7.909-17.802 4.094-1.82zm-16.011 6.84c-3.509 1.11-6.229-.464-7.265-3.745l-3.218-10.183-2.899.915-1.048-3.318 2.899-.916-.711-2.25 3.416-4.058 1.567 4.959 5.683-1.796 1.048 3.319-5.683 1.795 2.892 9.154c.639 2.022 1.749 2.216 3.008 1.818 1.449-.457 2.143-1.977 2.34-3.214l2.54 3.393c-.427 1.435-1.861 3.272-4.569 4.128m-22.285 5.791c-4.093.745-8.132-.228-10.139-2.994l2.096-3.227c1.413 1.735 4.132 3.273 7.556 2.65 1.889-.343 2.988-1.234 2.737-2.611-.258-1.417-1.8-1.624-4.018-1.75l-2.673-.164c-3.159-.157-6.196-.987-6.833-4.49-.652-3.58 1.827-6.268 6.235-7.07 4.093-.744 7.324.701 8.898 2.65l-2.096 3.228c-1.725-1.882-4-2.769-6.48-2.318-1.692.308-2.704 1.224-2.468 2.523.25 1.377 1.367 1.703 4.086 1.9l2.429.167c4.49.322 6.379 1.767 6.88 4.522.688 3.778-2.156 6.247-6.21 6.984m-25.762 3.204c-5.792.29-9.79-3.555-10.094-9.627-.306-6.113 3.288-10.338 8.761-10.612 5.832-.292 9.262 3.421 9.532 8.815.036.719-.002 1.562-.061 1.965l-13.903.696c.414 3.464 2.545 5.24 5.621 5.085 3.396-.17 4.826-2.003 5.463-3.677l2.901 2.738c-1.366 2.311-3.905 4.4-8.22 4.617m-1.153-16.643c-2.757.138-4.515 1.828-4.716 5.002l9.987-.5c-.473-3.06-2.315-4.65-5.271-4.502m-29.122 16.446c-4.789-.322-7.562-4.398-7.14-10.663.421-6.266 3.715-9.934 8.424-9.617 3.871.26 5.413 2.97 5.847 6.046l.843-12.531 4.47.3-1.798 26.74-4.47-.3.346-5.15c-.84 2.951-2.65 5.435-6.522 5.175m-2.551-10.355c-.295 4.39 1.678 6.648 4.512 6.838 3.113.21 4.569-1.777 4.784-4.97l.164-2.434c.214-3.193-.96-5.397-4.113-5.609-2.794-.188-5.054 1.825-5.347 6.175m-43.883 1.4c-4.568-1.476-6.267-6.103-4.335-12.079 1.931-5.975 6.017-8.732 10.508-7.28 3.692 1.193 4.529 4.196 4.203 7.285l3.863-11.95 4.263 1.377-8.243 25.501-4.263-1.378 1.587-4.91c-1.531 2.658-3.892 4.627-7.583 3.434m.042-10.664c-1.354 4.187.011 6.856 2.714 7.73 2.968.96 4.864-.614 5.849-3.659l.75-2.322c.984-3.044.38-5.468-2.626-6.44-2.665-.86-5.346.542-6.687 4.691m-22.858 1.582c-5.226-2.515-6.897-7.804-4.26-13.282 2.654-5.514 7.831-7.507 12.768-5.13 5.262 2.533 6.499 7.435 4.157 12.3-.313.65-.749 1.371-.995 1.697l-12.542-6.038c-1.293 3.24-.271 5.819 2.505 7.155 3.063 1.475 5.196.548 6.556-.618l1.238 3.793c-2.305 1.376-5.534 1.997-9.427.123m6.947-15.168c-2.487-1.197-4.839-.553-6.534 2.138l9.01 4.337c1.048-2.914.191-5.191-2.476-6.475m-29.886 2.85-3.916-2.175 9.46-17.029 3.916 2.176-2.681 4.825c2.145-2.378 5.218-3.873 8.26-2.184 2.133 1.185 2.93 3.458 1.531 5.976-.913 1.643-2.047 2.615-2.653 2.964l-4.022-2.234c.871-.248 2.017-1.076 2.561-2.055.524-.944.497-1.966-.657-2.607-1.958-1.088-5.02.14-6.593 2.972zm-24.676-12.421c-3.387-1.633-4.487-4.695-2.732-8.334l5.888-12.214 4.036 1.945-5.298 10.99c-1.042 2.162-1.034 3.986 1.669 5.289 2.954 1.424 4.884.001 6.273-2.881l4.742-9.837 4.072 1.963-8.459 17.547-4.072-1.963 2.31-4.792c-1.986 2.462-4.934 3.971-8.429 2.287m-18.388-7.432c-3.551-.966-4.988-3.76-4.085-7.08l2.802-10.306-2.933-.797.913-3.358 2.933.797.619-2.277 5.069-1.565-1.365 5.018 5.751 1.563-.913 3.358-5.751-1.563-2.519 9.263c-.556 2.046.273 2.81 1.546 3.157 1.467.398 2.873-.504 3.707-1.438l.302 4.227c-1.136.976-3.335 1.746-6.076 1.001m-29.598-4.418c-3.198-.106-5.057-1.969-4.964-4.767.091-2.759 2.066-4.374 5.265-5.509l6.608-2.542c-.095-1.964-.93-3.313-3.61-3.402-2.598-.086-4.687 1.366-5.874 3.367l-2.573-3.287c1.588-2.028 4.701-4.166 9.019-4.023 4.837.16 7.464 3.009 7.305 7.806l-.243 7.316c-.029.88.282 1.17 1.001 1.194l1.24.041-.127 3.838-2.759-.091c-2.079-.07-3.686-1.083-3.593-3.882l.047-1.439c-.684 2.539-2.664 5.515-6.742 5.38m-.624-5.304c-.037 1.12.7 1.824 2.339 1.879 2.958.098 5.015-1.595 5.103-4.233l.069-2.08-5.072 2.074c-1.704.704-2.406 1.36-2.44 2.36M52.88 42.834c-5.489 1.873-10.39-.724-12.352-6.479-1.976-5.792.316-10.842 5.503-12.612 5.527-1.885 9.846.741 11.59 5.852.232.681.427 1.502.48 1.907l-13.174 4.494c1.35 3.216 3.888 4.337 6.804 3.342 3.218-1.097 4.088-3.254 4.24-5.038l3.542 1.834c-.678 2.598-2.544 5.306-6.632 6.7m-5.687-15.683c-2.612.89-3.837 2.999-3.158 6.106l9.465-3.228c-1.297-2.812-3.506-3.834-6.307-2.878M33.08 61.64l-2.88 3.483L9.544 48.047l11.85-14.335 3.084 2.548-8.971 10.852 6.35 5.25 7.417-8.971 3.083 2.549-7.417 8.97z"/></svg>