<svg width="339" height="11" viewBox="0 0 339 11" fill="none" xmlns="http://www.w3.org/2000/svg">
<path d="M-2.76566e-05 5.00677C-2.76566e-05 7.77196 2.24159 10.0136 5.00677 10.0136C7.77196 10.0136 10.0136 7.77196 10.0136 5.00677C10.0136 2.24159 7.77196 -2.76566e-05 5.00677 -2.76566e-05C2.24159 -2.76566e-05 -2.76566e-05 2.24159 -2.76566e-05 5.00677ZM328 5.00677C328 7.77196 330.242 10.0136 333.007 10.0136C335.772 10.0136 338.014 7.77196 338.014 5.00677C338.014 2.24159 335.772 -2.76566e-05 333.007 -2.76566e-05C330.242 -2.76566e-05 328 2.24159 328 5.00677ZM10.4734 5.94555C10.9919 5.94555 11.4122 5.52525 11.4122 5.00677C11.4122 4.4883 10.9919 4.068 10.4734 4.068V5.00677V5.94555ZM21.4068 4.068C20.8883 4.068 20.468 4.4883 20.468 5.00677C20.468 5.52525 20.8883 5.94555 21.4068 5.94555V5.00677V4.068ZM32.3401 5.94555C32.8586 5.94555 33.2789 5.52525 33.2789 5.00677C33.2789 4.4883 32.8586 4.068 32.3401 4.068V5.00677V5.94555ZM43.2734 4.068C42.755 4.068 42.3347 4.4883 42.3347 5.00677C42.3347 5.52525 42.755 5.94555 43.2734 5.94555V5.00677V4.068ZM54.2068 5.94555C54.7252 5.94555 55.1455 5.52525 55.1455 5.00677C55.1455 4.4883 54.7252 4.068 54.2068 4.068V5.00677V5.94555ZM65.1401 4.068C64.6216 4.068 64.2013 4.4883 64.2013 5.00677C64.2013 5.52525 64.6216 5.94555 65.1401 5.94555V5.00677V4.068ZM76.0734 5.94555C76.5919 5.94555 77.0122 5.52525 77.0122 5.00677C77.0122 4.4883 76.5919 4.068 76.0734 4.068V5.00677V5.94555ZM87.0068 4.068C86.4883 4.068 86.068 4.4883 86.068 5.00677C86.068 5.52525 86.4883 5.94555 87.0068 5.94555V5.00677V4.068ZM97.9401 5.94555C98.4586 5.94555 98.8789 5.52525 98.8789 5.00677C98.8789 4.4883 98.4586 4.068 97.9401 4.068V5.00677V5.94555ZM108.873 4.068C108.355 4.068 107.935 4.4883 107.935 5.00677C107.935 5.52525 108.355 5.94555 108.873 5.94555V5.00677V4.068ZM119.807 5.94555C120.325 5.94555 120.746 5.52525 120.746 5.00677C120.746 4.4883 120.325 4.068 119.807 4.068V5.00677V5.94555ZM130.74 4.068C130.222 4.068 129.801 4.4883 129.801 5.00677C129.801 5.52525 130.222 5.94555 130.74 5.94555V5.00677V4.068ZM141.673 5.94555C142.192 5.94555 142.612 5.52525 142.612 5.00677C142.612 4.4883 142.192 4.068 141.673 4.068V5.00677V5.94555ZM152.607 4.068C152.088 4.068 151.668 4.4883 151.668 5.00677C151.668 5.52525 152.088 5.94555 152.607 5.94555V5.00677V4.068ZM163.54 5.94555C164.059 5.94555 164.479 5.52525 164.479 5.00677C164.479 4.4883 164.059 4.068 163.54 4.068V5.00677V5.94555ZM174.473 4.068C173.955 4.068 173.535 4.4883 173.535 5.00677C173.535 5.52525 173.955 5.94555 174.473 5.94555V5.00677V4.068ZM185.407 5.94555C185.925 5.94555 186.346 5.52525 186.346 5.00677C186.346 4.4883 185.925 4.068 185.407 4.068V5.00677V5.94555ZM196.34 4.068C195.822 4.068 195.401 4.4883 195.401 5.00677C195.401 5.52525 195.822 5.94555 196.34 5.94555V5.00677V4.068ZM207.273 5.94555C207.792 5.94555 208.212 5.52525 208.212 5.00677C208.212 4.4883 207.792 4.068 207.273 4.068V5.00677V5.94555ZM218.207 4.068C217.688 4.068 217.268 4.4883 217.268 5.00677C217.268 5.52525 217.688 5.94555 218.207 5.94555V5.00677V4.068ZM229.14 5.94555C229.659 5.94555 230.079 5.52525 230.079 5.00677C230.079 4.4883 229.659 4.068 229.14 4.068V5.00677V5.94555ZM240.073 4.068C239.555 4.068 239.135 4.4883 239.135 5.00677C239.135 5.52525 239.555 5.94555 240.073 5.94555V5.00677V4.068ZM251.007 5.94555C251.525 5.94555 251.946 5.52525 251.946 5.00677C251.946 4.4883 251.525 4.068 251.007 4.068V5.00677V5.94555ZM261.94 4.068C261.422 4.068 261.001 4.4883 261.001 5.00677C261.001 5.52525 261.422 5.94555 261.94 5.94555V5.00677V4.068ZM272.873 5.94555C273.392 5.94555 273.812 5.52525 273.812 5.00677C273.812 4.4883 273.392 4.068 272.873 4.068V5.00677V5.94555ZM283.807 4.068C283.288 4.068 282.868 4.4883 282.868 5.00677C282.868 5.52525 283.288 5.94555 283.807 5.94555V5.00677V4.068ZM294.74 5.94555C295.259 5.94555 295.679 5.52525 295.679 5.00677C295.679 4.4883 295.259 4.068 294.74 4.068V5.00677V5.94555ZM305.673 4.068C305.155 4.068 304.735 4.4883 304.735 5.00677C304.735 5.52525 305.155 5.94555 305.673 5.94555V5.00677V4.068ZM316.607 5.94555C317.125 5.94555 317.545 5.52525 317.545 5.00677C317.545 4.4883 317.125 4.068 316.607 4.068V5.00677V5.94555ZM327.54 4.068C327.022 4.068 326.601 4.4883 326.601 5.00677C326.601 5.52525 327.022 5.94555 327.54 5.94555V5.00677V4.068ZM5.00677 5.00677V5.94555H10.4734V5.00677V4.068H5.00677V5.00677ZM21.4068 5.00677V5.94555H32.3401V5.00677V4.068H21.4068V5.00677ZM43.2734 5.00677V5.94555H54.2068V5.00677V4.068H43.2734V5.00677ZM65.1401 5.00677V5.94555H76.0734V5.00677V4.068H65.1401V5.00677ZM87.0068 5.00677V5.94555H97.9401V5.00677V4.068H87.0068V5.00677ZM108.873 5.00677V5.94555H119.807V5.00677V4.068H108.873V5.00677ZM130.74 5.00677V5.94555H141.673V5.00677V4.068H130.74V5.00677ZM152.607 5.00677V5.94555H163.54V5.00677V4.068H152.607V5.00677ZM174.473 5.00677V5.94555H185.407V5.00677V4.068H174.473V5.00677ZM196.34 5.00677V5.94555H207.273V5.00677V4.068H196.34V5.00677ZM218.207 5.00677V5.94555H229.14V5.00677V4.068H218.207V5.00677ZM240.073 5.00677V5.94555H251.007V5.00677V4.068H240.073V5.00677ZM261.94 5.00677V5.94555H272.873V5.00677V4.068H261.94V5.00677ZM283.807 5.00677V5.94555H294.74V5.00677V4.068H283.807V5.00677ZM305.673 5.00677V5.94555H316.607V5.00677V4.068H305.673V5.00677ZM327.54 5.00677V5.94555H333.007V5.00677V4.068H327.54V5.00677Z" fill="#2D2D2D"/>
</svg>
