<svg width="1512" height="403" viewBox="0 0 1512 403" fill="none" xmlns="http://www.w3.org/2000/svg">
<path opacity="0.4" d="M-30.4 4.63998C14.4533 1.54664 54.0867 -2.76566e-05 88.5 -2.76566e-05C184.007 -2.76566e-05 231.76 31.9 231.76 95.7C231.76 122.767 225.187 146.933 212.04 168.2C198.893 189.467 176.273 203.58 144.18 210.54L260.18 406H206.24L92.56 214.02H17.74V406H-30.4V4.63998ZM88.5 5.79997C66.0733 5.79997 42.4867 7.15331 17.74 9.85998V208.22H103.58C158.1 205.9 185.36 168.78 185.36 96.86C185.36 67.4733 177.24 45.0466 161 29.58C144.76 13.7266 120.593 5.79997 88.5 5.79997ZM351.58 264.48C351.58 312.427 359.893 347.613 376.52 370.04C393.533 392.467 415.767 403.68 443.22 403.68C481.887 403.68 516.3 397.88 546.46 386.28L548.2 390.34C517.267 402.327 482.273 408.32 443.22 408.32C404.553 408.32 373.04 396.72 348.68 373.52C324.32 350.32 312.14 314.553 312.14 266.22C312.14 217.887 324.9 180.38 350.42 153.7C375.94 127.02 408.42 113.68 447.86 113.68C479.567 113.68 506.247 123.153 527.9 142.1C549.553 161.047 560.38 189.08 560.38 226.2C560.38 228.133 560.38 230.067 560.38 232H353.32C352.16 242.44 351.58 253.267 351.58 264.48ZM520.94 227.36C520.553 190.24 513.4 162.787 499.48 145C485.56 127.213 467.58 118.32 445.54 118.32C423.5 118.32 403.78 127.987 386.38 147.32C369.367 166.653 358.54 193.333 353.9 227.36H520.94ZM654.775 406C638.922 406 626.742 402.52 618.235 395.56C610.115 388.6 605.862 381.64 605.475 374.68L604.895 364.82V116H645.495V364.82C645.495 376.033 647.622 384.733 651.875 390.92C656.515 396.72 660.962 399.813 665.215 400.2L672.175 401.36H690.155V406H654.775ZM608.375 51.04C603.735 46.4 601.415 40.6 601.415 33.64C601.415 26.68 603.735 20.88 608.375 16.24C613.015 11.2133 618.815 8.69996 625.775 8.69996C632.735 8.69996 638.535 11.2133 643.175 16.24C648.202 20.88 650.715 26.68 650.715 33.64C650.715 40.6 648.202 46.4 643.175 51.04C638.535 55.68 632.735 58 625.775 58C618.815 58 613.015 55.68 608.375 51.04ZM911.946 136.3C905.759 131.273 895.706 127.02 881.786 123.54C868.253 120.06 858.006 118.32 851.046 118.32C844.086 118.32 840.026 118.32 838.866 118.32C817.986 118.707 802.906 124.12 793.626 134.56C784.346 144.613 779.706 156.02 779.706 168.78C779.706 181.54 783.766 192.367 791.886 201.26C800.006 209.767 810.059 216.533 822.046 221.56C834.419 226.2 847.566 231.613 861.486 237.8C875.793 243.987 888.939 250.367 900.926 256.94C913.299 263.127 923.546 272.407 931.666 284.78C939.786 296.767 943.846 311.847 943.846 330.02C943.846 348.193 937.466 363.66 924.706 376.42C911.946 389.18 897.639 397.687 881.786 401.94C866.319 406.193 849.499 408.32 831.326 408.32C791.886 408.32 762.306 399.62 742.586 382.22L746.066 378.74C753.799 386.087 765.206 392.08 780.286 396.72C795.753 401.36 810.639 403.68 824.946 403.68C847.759 403.68 866.513 397.493 881.206 385.12C896.286 372.36 903.826 356.7 903.826 338.14C903.826 319.193 898.219 304.113 887.006 292.9C875.793 281.3 862.066 272.407 845.826 266.22C829.973 259.647 813.926 253.267 797.686 247.08C781.446 240.507 767.719 231.613 756.506 220.4C745.293 208.8 739.686 195.46 739.686 180.38C739.686 165.3 743.166 153.12 750.126 143.84C757.086 134.173 766.366 127.407 777.966 123.54C797.686 116.967 817.406 113.68 837.126 113.68C870.379 113.68 896.286 119.867 914.846 132.24L911.946 136.3ZM1038.31 264.48C1038.31 312.427 1046.63 347.613 1063.25 370.04C1080.27 392.467 1102.5 403.68 1129.95 403.68C1168.62 403.68 1203.03 397.88 1233.19 386.28L1234.93 390.34C1204 402.327 1169.01 408.32 1129.95 408.32C1091.29 408.32 1059.77 396.72 1035.41 373.52C1011.05 350.32 998.873 314.553 998.873 266.22C998.873 217.887 1011.63 180.38 1037.15 153.7C1062.67 127.02 1095.15 113.68 1134.59 113.68C1166.3 113.68 1192.98 123.153 1214.63 142.1C1236.29 161.047 1247.11 189.08 1247.11 226.2C1247.11 228.133 1247.11 230.067 1247.11 232H1040.05C1038.89 242.44 1038.31 253.267 1038.31 264.48ZM1207.67 227.36C1207.29 190.24 1200.13 162.787 1186.21 145C1172.29 127.213 1154.31 118.32 1132.27 118.32C1110.23 118.32 1090.51 127.987 1073.11 147.32C1056.1 166.653 1045.27 193.333 1040.63 227.36H1207.67ZM1523.05 406C1507.2 406 1495.02 402.52 1486.51 395.56C1478.39 388.6 1474.14 381.64 1473.75 374.68L1473.17 364.82V182.7C1473.17 152.153 1465.24 132.627 1449.39 124.12C1441.27 120.253 1431.22 118.32 1419.23 118.32C1394.48 118.32 1372.25 128.18 1352.53 147.9C1332.81 167.233 1322.95 184.633 1322.95 200.1V406H1282.35V116H1322.95V182.12C1329.52 165.493 1341.7 150.027 1359.49 135.72C1377.28 121.027 1396.8 113.68 1418.07 113.68C1439.34 113.68 1456.54 115.807 1469.69 120.06C1483.22 123.927 1493.08 129.533 1499.27 136.88C1508.94 148.867 1513.77 164.333 1513.77 183.28V364.82C1513.77 376.033 1515.9 384.733 1520.15 390.92C1524.79 396.72 1529.43 399.813 1534.07 400.2L1540.45 401.36H1558.43V406H1523.05Z" fill="#2D2D2D"/>
</svg>
