<svg width="128" height="29" viewBox="0 0 128 29" fill="none" xmlns="http://www.w3.org/2000/svg">
<path d="M0.000195324 0.319999C3.09353 0.106665 5.82686 -1.90735e-06 8.2002 -1.90735e-06C14.7869 -1.90735e-06 18.0802 2.2 18.0802 6.6C18.0802 8.46667 17.6269 10.1333 16.7202 11.6C15.8135 13.0667 14.2535 14.04 12.0402 14.52L20.0402 28H16.3202L8.4802 14.76H3.3202V28H0.000195324V0.319999ZM8.2002 0.399998C6.65353 0.399998 5.02686 0.493331 3.3202 0.679999V14.36H9.2402C13.0002 14.2 14.8802 11.64 14.8802 6.68C14.8802 4.65333 14.3202 3.10667 13.2002 2.04C12.0802 0.946664 10.4135 0.399998 8.2002 0.399998ZM26.3436 18.24C26.3436 21.5467 26.917 23.9733 28.0636 25.52C29.237 27.0667 30.7703 27.84 32.6636 27.84C35.3303 27.84 37.7036 27.44 39.7836 26.64L39.9036 26.92C37.7703 27.7467 35.357 28.16 32.6636 28.16C29.997 28.16 27.8236 27.36 26.1436 25.76C24.4636 24.16 23.6236 21.6933 23.6236 18.36C23.6236 15.0267 24.5036 12.44 26.2636 10.6C28.0236 8.76 30.2636 7.84 32.9836 7.84C35.1703 7.84 37.0103 8.49333 38.5036 9.8C39.997 11.1067 40.7436 13.04 40.7436 15.6C40.7436 15.7333 40.7436 15.8667 40.7436 16H26.4636C26.3836 16.72 26.3436 17.4667 26.3436 18.24ZM38.0236 15.68C37.997 13.12 37.5036 11.2267 36.5436 10C35.5836 8.77333 34.3436 8.16 32.8236 8.16C31.3036 8.16 29.9436 8.82667 28.7436 10.16C27.5703 11.4933 26.8236 13.3333 26.5036 15.68H38.0236ZM56.0646 9.4C55.6379 9.05333 54.9446 8.76 53.9846 8.52C53.0512 8.28 52.3446 8.16 51.8646 8.16C51.3846 8.16 51.1046 8.16 51.0246 8.16C49.5846 8.18667 48.5446 8.56 47.9046 9.28C47.2646 9.97333 46.9446 10.76 46.9446 11.64C46.9446 12.52 47.2246 13.2667 47.7846 13.88C48.3446 14.4667 49.0379 14.9333 49.8646 15.28C50.7179 15.6 51.6246 15.9733 52.5846 16.4C53.5712 16.8267 54.4779 17.2667 55.3046 17.72C56.1579 18.1467 56.8646 18.7867 57.4246 19.64C57.9846 20.4667 58.2646 21.5067 58.2646 22.76C58.2646 24.0133 57.8246 25.08 56.9446 25.96C56.0646 26.84 55.0779 27.4267 53.9846 27.72C52.9179 28.0133 51.7579 28.16 50.5046 28.16C47.7846 28.16 45.7446 27.56 44.3846 26.36L44.6246 26.12C45.1579 26.6267 45.9446 27.04 46.9846 27.36C48.0512 27.68 49.0779 27.84 50.0646 27.84C51.6379 27.84 52.9312 27.4133 53.9446 26.56C54.9846 25.68 55.5046 24.6 55.5046 23.32C55.5046 22.0133 55.1179 20.9733 54.3446 20.2C53.5712 19.4 52.6246 18.7867 51.5046 18.36C50.4112 17.9067 49.3046 17.4667 48.1846 17.04C47.0646 16.5867 46.1179 15.9733 45.3446 15.2C44.5712 14.4 44.1846 13.48 44.1846 12.44C44.1846 11.4 44.4246 10.56 44.9046 9.92C45.3846 9.25333 46.0246 8.78667 46.8246 8.52C48.1846 8.06667 49.5446 7.84 50.9046 7.84C53.1979 7.84 54.9846 8.26667 56.2646 9.12L56.0646 9.4ZM65.3583 28C64.265 28 63.425 27.76 62.8383 27.28C62.2783 26.8 61.985 26.32 61.9583 25.84L61.9183 25.16V8H64.7183V25.16C64.7183 25.9333 64.865 26.5333 65.1583 26.96C65.4783 27.36 65.785 27.5733 66.0783 27.6L66.5583 27.68H67.7983V28H65.3583ZM62.1583 3.52C61.8383 3.2 61.6783 2.8 61.6783 2.32C61.6783 1.84 61.8383 1.44 62.1583 1.12C62.4783 0.773331 62.8783 0.599998 63.3583 0.599998C63.8383 0.599998 64.2383 0.773331 64.5583 1.12C64.905 1.44 65.0783 1.84 65.0783 2.32C65.0783 2.8 64.905 3.2 64.5583 3.52C64.2383 3.84 63.8383 4 63.3583 4C62.8783 4 62.4783 3.84 62.1583 3.52ZM83.0943 9.4C82.6676 9.05333 81.9743 8.76 81.0143 8.52C80.0809 8.28 79.3743 8.16 78.8943 8.16C78.4143 8.16 78.1343 8.16 78.0543 8.16C76.6143 8.18667 75.5743 8.56 74.9343 9.28C74.2943 9.97333 73.9743 10.76 73.9743 11.64C73.9743 12.52 74.2543 13.2667 74.8143 13.88C75.3743 14.4667 76.0676 14.9333 76.8943 15.28C77.7476 15.6 78.6543 15.9733 79.6143 16.4C80.6009 16.8267 81.5076 17.2667 82.3343 17.72C83.1876 18.1467 83.8943 18.7867 84.4543 19.64C85.0143 20.4667 85.2943 21.5067 85.2943 22.76C85.2943 24.0133 84.8543 25.08 83.9743 25.96C83.0943 26.84 82.1076 27.4267 81.0143 27.72C79.9476 28.0133 78.7876 28.16 77.5343 28.16C74.8143 28.16 72.7743 27.56 71.4143 26.36L71.6543 26.12C72.1876 26.6267 72.9743 27.04 74.0143 27.36C75.0809 27.68 76.1076 27.84 77.0943 27.84C78.6676 27.84 79.9609 27.4133 80.9743 26.56C82.0143 25.68 82.5343 24.6 82.5343 23.32C82.5343 22.0133 82.1476 20.9733 81.3743 20.2C80.6009 19.4 79.6543 18.7867 78.5343 18.36C77.4409 17.9067 76.3343 17.4667 75.2143 17.04C74.0943 16.5867 73.1476 15.9733 72.3743 15.2C71.6009 14.4 71.2143 13.48 71.2143 12.44C71.2143 11.4 71.4543 10.56 71.9343 9.92C72.4143 9.25333 73.0543 8.78667 73.8543 8.52C75.2143 8.06667 76.5743 7.84 77.9343 7.84C80.2276 7.84 82.0143 8.26667 83.2943 9.12L83.0943 9.4ZM91.8093 18.24C91.8093 21.5467 92.3826 23.9733 93.5293 25.52C94.7026 27.0667 96.2359 27.84 98.1293 27.84C100.796 27.84 103.169 27.44 105.249 26.64L105.369 26.92C103.236 27.7467 100.823 28.16 98.1293 28.16C95.4626 28.16 93.2893 27.36 91.6093 25.76C89.9293 24.16 89.0893 21.6933 89.0893 18.36C89.0893 15.0267 89.9693 12.44 91.7293 10.6C93.4893 8.76 95.7293 7.84 98.4493 7.84C100.636 7.84 102.476 8.49333 103.969 9.8C105.463 11.1067 106.209 13.04 106.209 15.6C106.209 15.7333 106.209 15.8667 106.209 16H91.9293C91.8493 16.72 91.8093 17.4667 91.8093 18.24ZM103.489 15.68C103.463 13.12 102.969 11.2267 102.009 10C101.049 8.77333 99.8093 8.16 98.2893 8.16C96.7693 8.16 95.4093 8.82667 94.2093 10.16C93.0359 11.4933 92.2893 13.3333 91.9693 15.68H103.489ZM125.239 28C124.146 28 123.306 27.76 122.719 27.28C122.159 26.8 121.866 26.32 121.839 25.84L121.799 25.16V12.6C121.799 10.4933 121.253 9.14667 120.159 8.56C119.599 8.29333 118.906 8.16 118.079 8.16C116.373 8.16 114.839 8.84 113.479 10.2C112.119 11.5333 111.439 12.7333 111.439 13.8V28H108.639V8H111.439V12.56C111.893 11.4133 112.733 10.3467 113.959 9.36C115.186 8.34667 116.533 7.84 117.999 7.84C119.466 7.84 120.653 7.98667 121.559 8.28C122.493 8.54667 123.173 8.93333 123.599 9.44C124.266 10.2667 124.599 11.3333 124.599 12.64V25.16C124.599 25.9333 124.746 26.5333 125.039 26.96C125.359 27.36 125.679 27.5733 125.999 27.6L126.439 27.68H127.679V28H125.239Z" fill="#2D2D2D"/>
</svg>
