<svg width="110" height="29" viewBox="0 0 110 29" fill="none" xmlns="http://www.w3.org/2000/svg">
<path d="M7.7486e-07 0.320001C3.09333 0.106667 5.82667 0 8.2 0C14.7867 0 18.08 2.2 18.08 6.6C18.08 8.46667 17.6267 10.1333 16.72 11.6C15.8133 13.0667 14.2533 14.04 12.04 14.52L20.04 28H16.32L8.48 14.76H3.32V28H7.7486e-07V0.320001ZM8.2 0.4C6.65333 0.4 5.02667 0.493333 3.32 0.680001V14.36H9.24C13 14.2 14.88 11.64 14.88 6.68C14.88 4.65333 14.32 3.10667 13.2 2.04C12.08 0.946666 10.4133 0.4 8.2 0.4ZM26.3434 18.24C26.3434 21.5467 26.9168 23.9733 28.0634 25.52C29.2368 27.0667 30.7701 27.84 32.6634 27.84C35.3301 27.84 37.7034 27.44 39.7834 26.64L39.9034 26.92C37.7701 27.7467 35.3568 28.16 32.6634 28.16C29.9968 28.16 27.8234 27.36 26.1434 25.76C24.4634 24.16 23.6234 21.6933 23.6234 18.36C23.6234 15.0267 24.5034 12.44 26.2634 10.6C28.0234 8.76 30.2634 7.84 32.9834 7.84C35.1701 7.84 37.0101 8.49333 38.5034 9.8C39.9968 11.1067 40.7434 13.04 40.7434 15.6C40.7434 15.7333 40.7434 15.8667 40.7434 16H26.4634C26.3834 16.72 26.3434 17.4667 26.3434 18.24ZM38.0234 15.68C37.9968 13.12 37.5034 11.2267 36.5434 10C35.5834 8.77333 34.3434 8.16 32.8234 8.16C31.3034 8.16 29.9434 8.82667 28.7434 10.16C27.5701 11.4933 26.8234 13.3333 26.5034 15.68H38.0234ZM47.2534 28C46.1601 28 45.3201 27.76 44.7334 27.28C44.1734 26.8 43.8801 26.32 43.8534 25.84L43.8134 25.16V8H46.6134V25.16C46.6134 25.9333 46.7601 26.5333 47.0534 26.96C47.3734 27.36 47.6801 27.5733 47.9734 27.6L48.4534 27.68H49.6934V28H47.2534ZM44.0534 3.52C43.7334 3.2 43.5734 2.8 43.5734 2.32C43.5734 1.84 43.7334 1.44 44.0534 1.12C44.3734 0.773333 44.7734 0.599999 45.2534 0.599999C45.7334 0.599999 46.1334 0.773333 46.4534 1.12C46.8001 1.44 46.9734 1.84 46.9734 2.32C46.9734 2.8 46.8001 3.2 46.4534 3.52C46.1334 3.84 45.7334 4 45.2534 4C44.7734 4 44.3734 3.84 44.0534 3.52ZM64.9894 9.4C64.5627 9.05333 63.8694 8.76 62.9094 8.52C61.976 8.28 61.2694 8.16 60.7894 8.16C60.3094 8.16 60.0294 8.16 59.9494 8.16C58.5094 8.18667 57.4694 8.56 56.8294 9.28C56.1894 9.97333 55.8694 10.76 55.8694 11.64C55.8694 12.52 56.1494 13.2667 56.7094 13.88C57.2694 14.4667 57.9627 14.9333 58.7894 15.28C59.6427 15.6 60.5494 15.9733 61.5094 16.4C62.496 16.8267 63.4027 17.2667 64.2294 17.72C65.0827 18.1467 65.7894 18.7867 66.3494 19.64C66.9094 20.4667 67.1894 21.5067 67.1894 22.76C67.1894 24.0133 66.7494 25.08 65.8694 25.96C64.9894 26.84 64.0027 27.4267 62.9094 27.72C61.8427 28.0133 60.6827 28.16 59.4294 28.16C56.7094 28.16 54.6694 27.56 53.3094 26.36L53.5494 26.12C54.0827 26.6267 54.8694 27.04 55.9094 27.36C56.976 27.68 58.0027 27.84 58.9894 27.84C60.5627 27.84 61.856 27.4133 62.8694 26.56C63.9094 25.68 64.4294 24.6 64.4294 23.32C64.4294 22.0133 64.0427 20.9733 63.2694 20.2C62.496 19.4 61.5494 18.7867 60.4294 18.36C59.336 17.9067 58.2294 17.4667 57.1094 17.04C55.9894 16.5867 55.0427 15.9733 54.2694 15.2C53.496 14.4 53.1094 13.48 53.1094 12.44C53.1094 11.4 53.3494 10.56 53.8294 9.92C54.3094 9.25333 54.9494 8.78667 55.7494 8.52C57.1094 8.06667 58.4694 7.84 59.8294 7.84C62.1227 7.84 63.9094 8.26667 65.1894 9.12L64.9894 9.4ZM73.7044 18.24C73.7044 21.5467 74.2777 23.9733 75.4244 25.52C76.5977 27.0667 78.131 27.84 80.0244 27.84C82.691 27.84 85.0644 27.44 87.1444 26.64L87.2644 26.92C85.131 27.7467 82.7177 28.16 80.0244 28.16C77.3577 28.16 75.1844 27.36 73.5044 25.76C71.8244 24.16 70.9844 21.6933 70.9844 18.36C70.9844 15.0267 71.8644 12.44 73.6244 10.6C75.3844 8.76 77.6244 7.84 80.3444 7.84C82.531 7.84 84.371 8.49333 85.8644 9.8C87.3577 11.1067 88.1044 13.04 88.1044 15.6C88.1044 15.7333 88.1044 15.8667 88.1044 16H73.8244C73.7444 16.72 73.7044 17.4667 73.7044 18.24ZM85.3844 15.68C85.3577 13.12 84.8644 11.2267 83.9044 10C82.9444 8.77333 81.7044 8.16 80.1844 8.16C78.6644 8.16 77.3044 8.82667 76.1044 10.16C74.931 11.4933 74.1844 13.3333 73.8644 15.68H85.3844ZM107.134 28C106.041 28 105.201 27.76 104.614 27.28C104.054 26.8 103.761 26.32 103.734 25.84L103.694 25.16V12.6C103.694 10.4933 103.148 9.14667 102.054 8.56C101.494 8.29333 100.801 8.16 99.9744 8.16C98.2677 8.16 96.7344 8.84 95.3744 10.2C94.0144 11.5333 93.3344 12.7333 93.3344 13.8V28H90.5344V8H93.3344V12.56C93.7877 11.4133 94.6277 10.3467 95.8544 9.36C97.081 8.34667 98.4277 7.84 99.8944 7.84C101.361 7.84 102.548 7.98667 103.454 8.28C104.388 8.54667 105.068 8.93333 105.494 9.44C106.161 10.2667 106.494 11.3333 106.494 12.64V25.16C106.494 25.9333 106.641 26.5333 106.934 26.96C107.254 27.36 107.574 27.5733 107.894 27.6L108.334 27.68H109.574V28H107.134Z" fill="#2D2D2D"/>
</svg>
