<svg xmlns="http://www.w3.org/2000/svg" width="1063" height="203" fill="none" viewBox="0 0 1063 203"><path fill="#cfbeea" d="M0 112.343c0 7.364 5.97 13.333 13.333 13.333s13.333-5.969 13.333-13.333-5.97-13.333-13.333-13.333S0 104.979 0 112.343M146.163 6.326l.267-2.486zm811.67 3.017-.525 2.444zm84.237 124.536c.97.976 2.55.976 3.53 0l15.91-15.91c.98-.976.98-2.559 0-3.535a2.49 2.49 0 0 0-3.53 0l-14.15 14.142-14.14-14.142a2.49 2.49 0 0 0-3.53 0 2.493 2.493 0 0 0 0 3.535zM13.333 112.343h2.5c0-1.474.63-4.374 2.122-8.529 1.46-4.062 3.653-9.082 6.563-14.686 5.82-11.209 14.453-24.644 25.666-37.318 22.463-25.389 54.937-47.368 95.713-42.998l.266-2.486.267-2.486C103.375-.773 69.434 22.507 46.44 48.497c-11.516 13.016-20.373 26.8-26.36 38.326-2.993 5.764-5.283 10.99-6.83 15.301-1.516 4.219-2.417 7.818-2.417 10.219zM146.163 6.326l-.266 2.486c71.575 7.67 115.068 55.261 164.196 101.893 49.01 46.521 103.282 91.584 195.91 91.584v-5c-90.616 0-143.668-43.889-192.468-90.21-48.684-46.21-93.488-95.35-167.105-103.239zm359.84 193.463v2.5c96.415 0 151.969-60.995 211.752-114.614 29.989-26.897 61.067-52.014 99.026-67.353 37.89-15.31 82.801-20.938 140.527-8.535l.525-2.444.525-2.444c-58.634-12.6-104.57-6.923-143.45 8.787-38.81 15.683-70.427 41.302-100.492 68.267-60.326 54.106-114.327 113.336-208.413 113.336zM957.833 9.343l-.525 2.444c29.753 6.394 50.642 19.72 64.142 39.619 13.55 19.965 19.88 46.845 19.88 80.705h5c0-34.408-6.42-62.411-20.74-83.513-14.37-21.17-36.485-35.092-67.232-41.7z"/></svg>