<svg width="1110" height="204" viewBox="0 0 1110 204" fill="none" xmlns="http://www.w3.org/2000/svg">
<path d="M5.72205e-06 101.528C5.72205e-06 116.256 11.9391 128.195 26.6667 128.195C41.3943 128.195 53.3333 116.256 53.3333 101.528C53.3333 86.8004 41.3943 74.8613 26.6667 74.8613C11.9391 74.8613 5.72205e-06 86.8004 5.72205e-06 101.528ZM166.497 5.03657L166.586 0.0373673L166.497 5.03657ZM975.667 11.4075V16.4075V11.4075ZM1059.64 132.946C1060.81 135.446 1063.79 136.521 1066.29 135.348L1107.03 116.227C1109.53 115.054 1110.6 112.076 1109.43 109.576C1108.26 107.077 1105.28 106.001 1102.78 107.175L1066.57 124.171L1049.57 87.9616C1048.4 85.4618 1045.42 84.3866 1042.92 85.5599C1040.42 86.7333 1039.35 89.7109 1040.52 92.2106L1059.64 132.946ZM26.6667 101.528L28.1796 106.294C38.5615 102.998 45.006 93.8657 50.5628 84.1538C56.4175 73.9212 61.5119 62.6824 69.4378 51.3822C77.1795 40.3444 87.2876 29.8517 102.35 22.1941C117.438 14.5236 137.838 9.52516 166.408 10.0358L166.497 5.03657L166.586 0.0373673C136.755 -0.495802 114.664 4.7158 97.8184 13.2799C80.9473 21.857 69.6791 33.6234 61.2508 45.64C53.0066 57.3941 47.1372 70.0049 41.8831 79.1877C36.3311 88.8912 31.5218 94.7406 25.1537 96.7624L26.6667 101.528ZM166.497 5.03657L166.408 10.0358C237.026 11.2979 279.705 57.8438 328.943 106.31C377.865 154.466 432.584 203.5 526.337 203.5V198.5V193.5C436.846 193.5 384.645 147.107 335.958 99.1835C287.587 51.5706 241.968 1.38467 166.586 0.0373673L166.497 5.03657ZM526.337 198.5V203.5C623.582 203.5 677.717 155.486 736.291 108.866C794.749 62.3378 858.347 16.4074 975.667 16.4075V11.4075V6.40754C854.954 6.40741 789.137 54.0232 730.063 101.042C671.106 147.967 619.592 193.5 526.337 193.5V198.5ZM975.667 11.4075V16.4075C1005.73 16.4076 1032.84 27.8134 1049.28 47.3355C1065.56 66.6677 1071.93 94.6013 1059.46 129.124L1064.17 130.822L1068.87 132.52C1082.4 95.0422 1075.77 63.2688 1056.93 40.8938C1038.24 18.7089 1008.1 6.40758 975.667 6.40754V11.4075Z" fill="#CFBEEA"/>
</svg>
